<svg xmlns="http://www.w3.org/2000/svg" fill="none" viewBox="0 0 208 60">
    <title>Central Park Conservancy</title>
    <path fill="#286140"
        d="M108.5 31.5l-2.2 15.8-2.3-15.8h-6.7l5.3 28h7.2l5.3-28h-6.6zM9.3 28.7c2 0 3.3-.4 4.5-1.2V21c-1.2.7-2.3 1-3.3 1-2 0-3.6-1.2-3.6-7.1v-1c0-5.8 1.7-7.3 3.6-7.3 1.1 0 2 .3 3.2 1V1a8.2 8.2 0 00-4-.9C4.9 0 0 3.7 0 13.5v1.8c0 9.2 4.2 13.4 9.3 13.4zM28.4 21.8H22v-4.4h5.6v-6.3H22V6.9h6.2V.4H15.3v28h13v-6.6zM36.3 16.5l4 11.8h6.3V.3H40v11.2L36.4.4h-6.6v28h6.5v-12zM51.6 28.3h6.7V7h3.8V.4H47.8v6.5h3.8v21.4zM70 19.7h.4l2.5 8.6h12.3l.6-4.6h3.9l.6 4.6H97L91.8.3h-8l-4.7 25.4-2.7-8.4c1.7-1.4 3-3.4 3-7.3v-.4c0-3-.9-5.2-2.3-6.7A9.7 9.7 0 0070 .4h-6.6v28H70v-8.7zm17.5-8.4l.2-1.7.3 1.7 1 6.8h-2.4l1-6.8zM70 6.3h.2c1.3 0 2.3 1 2.3 3.6v.8c0 2.5-1 3.5-2.3 3.5H70V6.4zM154.8 19.7h.4l2.4 8.6h7.2l-3.6-11c1.6-1.4 3-3.4 3-7.3v-.4c0-3-.9-5.2-2.3-6.7a9.7 9.7 0 00-7.1-2.5H148v28h6.7v-8.7zm0-13.3h.2c1.3 0 2.3.9 2.3 3.5v.8c0 2.5-1 3.5-2.3 3.5h-.2V6.4zM110 21.8h-5.7V.4h-6.7v28H110v-6.6zM122.2 20.2h.3c3.9 0 8.8-2.5 8.8-9.6V10c0-6.7-3.8-9.6-9.4-9.6h-6.3v28h6.6v-8.2zm0-13.8h.2c1.3 0 2.3 1 2.3 3.5v.8c0 2.6-1 3.5-2.4 3.5V6.4zM172.2 21.3l.7-2 2 9h7l-4.2-16 4-12H175l-2.8 9.7V.4h-6.8v28h6.8v-7zM6.8 46v-1c0-6 1.8-7.4 3.7-7.4 1.2 0 2.1.3 3.3 1V32a8.4 8.4 0 00-4-.9C4.8 31.1 0 35 0 44.7v1.6c0 9.3 4.2 13.5 9.4 13.5 2 0 3.2-.4 4.5-1.2v-6.3c-1.2.7-2.3 1-3.4 1-2 0-3.7-1.2-3.7-7.3zM23 31c-5.4 0-8.7 4.5-8.7 13.5v2c0 9 3.3 13.5 8.7 13.5 5.5 0 8.8-4.6 8.8-13.6v-1.9c0-9-3.3-13.6-8.8-13.6zm2 15.5c0 6.2-.7 7.3-2 7.3-1.2 0-1.9-1-1.9-7.3v-2.1c0-6.2.7-7.3 2-7.3 1.2 0 1.9 1.1 1.9 7.3v2.1zM43.8 43l-4-11.5h-6.5v28h6.4V47.2L44 59.4h6.2v-28h-6.4V43zM142.4 43l-4-11.5H132v28h6.4V47.2l4.3 12.1h6.2v-28h-6.4V43zM60.6 42.2c-1.7-1.5-2.3-2.2-2.3-3.1V39c0-1 .7-1.6 2-1.6 1.4 0 3 .4 4.6 1.4V32c-1.4-.6-3-1-5.3-1-4.6 0-8 3.1-8 8.2v.3c0 4 1.8 6 5.5 9.1 1.5 1.4 2.2 2.2 2.2 3v.2c0 1-.7 1.6-2 1.6-1.7 0-3.6-.7-5.3-1.7v6.6c1.5.9 3.8 1.5 6 1.5 4.4 0 8-3.3 8-8.2v-.2c0-4-1.7-6-5.4-9.3zM73.8 48.5h5.6v-6.2h-5.6v-4.5H80v-6.3H67v28h13.1V53h-6.4v-4.6zM94.4 48.5c1.8-1.4 3.2-3.4 3.2-7.4v-.4c0-3-.8-5.3-2.4-6.7-1.7-1.7-4.2-2.5-7.1-2.5h-6.6v28H88v-8.8h.4l2.6 8.7h7.2l-3.7-10.9h-.2zm-3.6-6.8c0 2.6-1 3.6-2.5 3.6h-.2v-8h.2c1.4 0 2.5 1 2.5 3.6v.8zM118.3 31.5l-5.3 28h6.5l.6-4.8h4l.8 4.7h6.6l-5.3-28h-7.9zm2.6 17.7l1.2-8.5 1.3 8.5h-2.5zM157.1 46v-1c0-6 1.8-7.4 3.7-7.4 1.1 0 2 .3 3.2 1V32a8.4 8.4 0 00-4-.9c-5 0-9.7 3.8-9.7 13.6v1.6c0 9.3 4.2 13.5 9.4 13.5 2 0 3.2-.4 4.5-1.2v-6.3c-1.3.7-2.3 1-3.4 1-2 0-3.7-1.2-3.7-7.3zM175.4 31.5l-2 9.5-2-9.5h-6.8l5.4 18v10h6.7v-10l5.4-18h-6.7zM136 28.3l.7-4.6h3.9l.6 4.6h6.7l-5.2-28h-8l-5.2 28h6.6zm2.4-17l.2-1.7.3 1.7 1 6.8h-2.4l.9-6.8z"></path>
    <path fill="#79C000" d="M207.9.4h-22v59h22V.4z"></path>
</svg>